<mxfile host="app.diagrams.net" modified="2024-01-26T18:41:37.701Z" agent="Mozilla/5.0 (Macintosh; Intel Mac OS X 10_15_7) AppleWebKit/537.36 (KHTML, like Gecko) Chrome/120.0.0.0 Safari/537.36" etag="FqZ5chYNJpk7yLCduXJ1" version="23.0.2" type="github">
  <diagram name="Page-1" id="teSWlb0c2JTWcWr7RHAd">
    <mxGraphModel dx="954" dy="582" grid="1" gridSize="10" guides="1" tooltips="1" connect="1" arrows="1" fold="1" page="1" pageScale="1" pageWidth="850" pageHeight="1100" math="0" shadow="0">
      <root>
        <mxCell id="0" />
        <mxCell id="1" parent="0" />
        <mxCell id="vVoupq-6HbKNy5Dhb7I3-1" value="Order Service" style="rounded=0;whiteSpace=wrap;html=1;" vertex="1" parent="1">
          <mxGeometry x="80" y="80" width="120" height="60" as="geometry" />
        </mxCell>
        <mxCell id="vVoupq-6HbKNy5Dhb7I3-2" value="Cart Service" style="rounded=0;whiteSpace=wrap;html=1;" vertex="1" parent="1">
          <mxGeometry x="305" y="80" width="120" height="60" as="geometry" />
        </mxCell>
        <mxCell id="vVoupq-6HbKNy5Dhb7I3-3" value="Payment Service" style="rounded=0;whiteSpace=wrap;html=1;" vertex="1" parent="1">
          <mxGeometry x="520" y="80" width="120" height="60" as="geometry" />
        </mxCell>
        <mxCell id="vVoupq-6HbKNy5Dhb7I3-4" value="Customer Service" style="rounded=0;whiteSpace=wrap;html=1;" vertex="1" parent="1">
          <mxGeometry x="720" y="80" width="120" height="60" as="geometry" />
        </mxCell>
        <mxCell id="vVoupq-6HbKNy5Dhb7I3-5" value="DB" style="shape=cylinder3;whiteSpace=wrap;html=1;boundedLbl=1;backgroundOutline=1;size=15;" vertex="1" parent="1">
          <mxGeometry x="110" y="200" width="60" height="80" as="geometry" />
        </mxCell>
        <mxCell id="vVoupq-6HbKNy5Dhb7I3-6" value="DB" style="shape=cylinder3;whiteSpace=wrap;html=1;boundedLbl=1;backgroundOutline=1;size=15;" vertex="1" parent="1">
          <mxGeometry x="335" y="200" width="60" height="80" as="geometry" />
        </mxCell>
        <mxCell id="vVoupq-6HbKNy5Dhb7I3-7" value="DB" style="shape=cylinder3;whiteSpace=wrap;html=1;boundedLbl=1;backgroundOutline=1;size=15;" vertex="1" parent="1">
          <mxGeometry x="550" y="200" width="60" height="80" as="geometry" />
        </mxCell>
        <mxCell id="vVoupq-6HbKNy5Dhb7I3-8" value="DB" style="shape=cylinder3;whiteSpace=wrap;html=1;boundedLbl=1;backgroundOutline=1;size=15;" vertex="1" parent="1">
          <mxGeometry x="750" y="200" width="60" height="80" as="geometry" />
        </mxCell>
        <mxCell id="vVoupq-6HbKNy5Dhb7I3-9" value="" style="endArrow=classic;startArrow=classic;html=1;rounded=0;" edge="1" parent="1">
          <mxGeometry width="50" height="50" relative="1" as="geometry">
            <mxPoint x="139.5" y="193" as="sourcePoint" />
            <mxPoint x="139.5" y="143" as="targetPoint" />
          </mxGeometry>
        </mxCell>
        <mxCell id="vVoupq-6HbKNy5Dhb7I3-10" value="" style="endArrow=classic;startArrow=classic;html=1;rounded=0;" edge="1" parent="1">
          <mxGeometry width="50" height="50" relative="1" as="geometry">
            <mxPoint x="362" y="198" as="sourcePoint" />
            <mxPoint x="362" y="148" as="targetPoint" />
          </mxGeometry>
        </mxCell>
        <mxCell id="vVoupq-6HbKNy5Dhb7I3-11" value="" style="endArrow=classic;startArrow=classic;html=1;rounded=0;" edge="1" parent="1">
          <mxGeometry width="50" height="50" relative="1" as="geometry">
            <mxPoint x="579.5" y="200" as="sourcePoint" />
            <mxPoint x="579.5" y="150" as="targetPoint" />
          </mxGeometry>
        </mxCell>
        <mxCell id="vVoupq-6HbKNy5Dhb7I3-12" value="" style="endArrow=classic;startArrow=classic;html=1;rounded=0;" edge="1" parent="1">
          <mxGeometry width="50" height="50" relative="1" as="geometry">
            <mxPoint x="779.5" y="191" as="sourcePoint" />
            <mxPoint x="779.5" y="141" as="targetPoint" />
          </mxGeometry>
        </mxCell>
      </root>
    </mxGraphModel>
  </diagram>
</mxfile>
